<?xml version="1.0" encoding="iso-8859-1"?>
<!-- Generator: Adobe Illustrator 19.0.0, SVG Export Plug-In . SVG Version: 6.00 Build 0)  -->
<svg version="1.1" id="Layer_1" xmlns="http://www.w3.org/2000/svg" xmlns:xlink="http://www.w3.org/1999/xlink" x="0px" y="0px"
	 viewBox="0 0 512 512" style="enable-background:new 0 0 512 512;" xml:space="preserve">
<path style="fill:#FFAD61;" d="M10.199,223.124v13.335c0,135.752,110.048,197.654,245.801,197.654l0,0
	c135.752,0,245.801-61.903,245.801-197.654v-13.335L10.199,223.124L10.199,223.124z"/>
<g>
	<path style="fill:#D35B38;" d="M361.453,475.079H148.155c-10.981,0-19.883-8.902-19.883-19.883l0,0
		c0-10.981,8.902-19.883,19.883-19.883h213.298c10.981,0,19.883,8.902,19.883,19.883l0,0
		C381.337,466.177,372.434,475.079,361.453,475.079z"/>
	<path style="fill:#D35B38;" d="M153.498,88.927l-55.532,55.532c-8.763,8.763-22.97,8.763-31.733,0l-13.703-13.703
		c-8.763-8.763-8.763-22.97,0-31.733l55.532-55.532c8.763-8.763,22.97-8.763,31.733,0l13.703,13.704
		C162.26,65.958,162.26,80.165,153.498,88.927z"/>
	<polygon style="fill:#D35B38;" points="153.498,88.927 97.965,144.46 168.643,223.124 302.781,223.124 	"/>
</g>
<g>
	<path style="fill:#4D3D36;" d="M501.801,212.925h-195.11L166.99,87.342c2.142-4.394,3.279-9.249,3.279-14.28
		c0-8.718-3.395-16.914-9.56-23.079l-13.703-13.703c-6.164-6.164-14.36-9.56-23.078-9.56s-16.913,3.395-23.078,9.56L45.319,91.812
		c-12.726,12.727-12.726,33.431,0,46.158l13.703,13.703c6.164,6.164,14.36,9.56,23.078,9.56c5.031,0,9.885-1.137,14.278-3.278
		l49.391,54.973H10.199C4.566,212.926,0,217.493,0,223.125v13.335c0,66.997,26.344,121.622,76.182,157.975
		c18.219,13.289,39.331,24.024,62.881,32.085c-12.156,3.863-20.991,15.256-20.991,28.675c0,16.588,13.495,30.083,30.083,30.083
		h213.298c16.588,0,30.083-13.495,30.083-30.083c0-12.98-8.264-24.066-19.808-28.274c24.034-8.104,45.562-18.972,64.09-32.487
		C485.656,358.082,512,303.456,512,236.46v-13.335C512,217.492,507.434,212.925,501.801,212.925z M73.445,137.247l-13.703-13.703
		c-4.772-4.772-4.772-12.537,0-17.309l55.533-55.531c2.312-2.312,5.385-3.586,8.654-3.586s6.342,1.274,8.654,3.586l13.703,13.703
		c2.312,2.312,3.585,5.385,3.585,8.654c0,3.268-1.272,6.34-3.582,8.651c-0.001,0.001-0.002,0.001-0.003,0.002l-55.532,55.532
		c-2.311,2.312-5.385,3.586-8.654,3.586C78.832,140.832,75.757,139.558,73.445,137.247z M112.014,144.834l41.858-41.858
		l122.307,109.947H173.191L112.014,144.834z M361.454,464.879H148.155c-5.34,0-9.684-4.345-9.684-9.684
		c0-5.339,4.344-9.684,9.684-9.684h213.298c5.34,0,9.684,4.345,9.684,9.684C371.137,460.534,366.793,464.879,361.454,464.879z
		 M491.602,233.324v3.136c0,117.38-88.075,187.456-235.602,187.456c-133.308,0-218.064-57.225-233.164-154.862h365.618
		c5.633,0,10.199-4.567,10.199-10.199c0-5.632-4.566-10.199-10.199-10.199H20.736c-0.217-4.008-0.338-8.07-0.338-12.196v-3.136
		H491.602z"/>
	<path style="fill:#4D3D36;" d="M427.211,269.054h14.279c5.633,0,10.199-4.567,10.199-10.199c0-5.632-4.566-10.199-10.199-10.199
		h-14.279c-5.633,0-10.199,4.567-10.199,10.199C417.012,264.487,421.578,269.054,427.211,269.054z"/>
</g>
<g>
</g>
<g>
</g>
<g>
</g>
<g>
</g>
<g>
</g>
<g>
</g>
<g>
</g>
<g>
</g>
<g>
</g>
<g>
</g>
<g>
</g>
<g>
</g>
<g>
</g>
<g>
</g>
<g>
</g>
</svg>
