<svg height="512pt" viewBox="0 -19 512 512" width="512pt" xmlns="http://www.w3.org/2000/svg"><path d="m497 146.671875h-36.476562l25.175781-61.144531c11.199219-27.199219-.78125-58.515625-27.277344-71.292969l-18.113281-8.734375c-13.742188-6.625-29.796875-7.296875-44.042969-1.84375-14.25 5.449219-25.753906 16.667969-31.5625 30.773438l-46.21875 112.242187h-303.484375c-8.285156 0-15 6.71875-15 15v60.542969c0 67.429687 26.257812 130.820312 73.9375 178.5 47.679688 47.683594 111.074219 73.941406 178.503906 73.941406h7.121094c67.425781 0 130.820312-26.257812 178.5-73.941406 47.679688-47.679688 73.9375-111.074219 73.9375-178.503906v-60.539063c0-8.285156-6.714844-15-15-15zm-104.558594-100.820313c2.71875-6.59375 7.882813-11.632812 14.542969-14.179687 6.660156-2.550781 13.867187-2.246094 20.292969.851563l18.113281 8.730468c12.207031 5.890625 17.726563 20.316406 12.570313 32.851563l-29.882813 72.566406h-77.148437zm-63.910156 130.820313h153.46875v28.160156h-452v-28.160156zm120.234375 162.371094h-58.503906v-13.324219h35.332031c8.285156 0 15-6.714844 15-15v-43.324219c0-8.285156-6.714844-15-15-15h-144.773438c-2.527343-.316406-5.144531.011719-7.597656 1.03125-5.597656 2.328125-9.246094 7.792969-9.246094 13.851563v43.328125c0 8.285156 6.71875 15 15 15h35.332032v13.324219h-116.617188v-13.324219h34.328125c8.164063 0 14.832031-6.53125 15-14.691407l.882813-43.15625c.003906-.121093.003906-.242187.003906-.363281 0-8.277343-6.703125-14.988281-14.976562-15-.007813 0-.015626 0-.023438 0h-146.5c-8.285156 0-15 6.714844-15 15v43.324219c0 8.285156 6.714844 15 15 15h35.332031v13.328125h-58.503906c-18.972656-30.617187-30.730469-66.152344-32.871094-104.214844h451.269531c-2.136718 38.0625-13.894531 73.597657-32.867187 104.210938zm-39.390625 47.449219h-306.746094c-6.023437-5.496094-11.738281-11.328126-17.128906-17.449219h51.238281c8.285157 0 15-6.714844 15-15v-43.324219c0-8.285156-6.714843-15-15-15h-35.332031v-13.324219h116.191406l-.273437 13.210938h-34.632813c-8.285156 0-15 6.714843-15 15v43.324219c0 8.285156 6.714844 15 15 15h146.617188c8.285156 0 15-6.714844 15-15v-43.324219c0-8.285157-6.714844-15-15-15h-35.332032v-13.210938h116.617188v13.324219h-35.332031c-8.285157 0-15 6.714844-15 15v43.324219c0 8.285156 6.714843 15 15 15h51.238281c-5.390625 6.121093-11.105469 11.953125-17.125 17.449219zm-156.9375 58.160156c-39.257812 0-76.164062-10.234375-108.214844-28.160156h223.550782c-32.046876 17.921874-68.957032 28.160156-108.214844 28.160156zm0 0"/></svg>