<svg clip-rule="evenodd" fill-rule="evenodd" height="512" image-rendering="optimizeQuality" shape-rendering="geometricPrecision" text-rendering="geometricPrecision" viewBox="0 0 800 800" width="512" xmlns="http://www.w3.org/2000/svg" xmlns:xodm="http://www.corel.com/coreldraw/odm/2003"><g id="Layer_x0020_1"><circle cx="400" cy="400" fill="#8c28cf" r="400"/><g id="_445054184"><g><g><g id="_445053272"><path d="m235.04 652.25c-1.66 0-3.22-.82-4.14-2.2l-86-127.24c-1.04-1.53-1.14-3.51-.27-5.15.87-1.63 2.56-2.65 4.41-2.65h171.99c1.85 0 3.55 1.02 4.42 2.65.87 1.64.76 3.61-.28 5.15l-85.99 127.25c-.93 1.37-2.48 2.19-4.14 2.19zm-76.58-127.24 76.58 113.32 76.58-113.32z" fill="#fefefe"/></g><g id="_445054424"><path d="m321.03 525.01h-171.99c-1.85 0-3.54-1.02-4.41-2.66-.87-1.63-.77-3.61.27-5.14l22.76-33.67c.93-1.38 2.48-2.2 4.14-2.2h126.48c1.66 0 3.21.82 4.14 2.2l22.75 33.67c1.04 1.53 1.15 3.51.28 5.14-.87 1.64-2.57 2.66-4.42 2.66zm-162.57-10h153.16l-16-23.67h-121.17z" fill="#fefefe"/></g><g id="_445054448"><path d="m235.04 652.25c-2.15 0-4.05-1.36-4.74-3.39l-42.99-127.25c-.52-1.53-.27-3.21.67-4.52s2.45-2.08 4.06-2.08h85.99c1.62 0 3.13.77 4.07 2.08s1.19 2.99.67 4.52l-43 127.25c-.68 2.03-2.59 3.39-4.73 3.39zm-36.03-127.24 36.03 106.63 36.03-106.63z" fill="#fefefe"/></g><g id="_445053920"><path d="m278.03 525.01h-85.99c-2.13 0-4.03-1.36-4.72-3.37-.7-2.02-.04-4.25 1.64-5.57l42.99-33.67c1.82-1.42 4.36-1.42 6.17 0l43 33.67c1.67 1.32 2.33 3.55 1.64 5.57-.7 2.01-2.59 3.37-4.73 3.37zm-71.5-10h57.01l-28.5-22.32z" fill="#fefefe"/></g><g id="_445053872"><path d="m278.03 525.01c-.88 0-1.77-.23-2.57-.72-2.37-1.42-3.13-4.49-1.71-6.86l20.24-33.67c1.42-2.37 4.5-3.13 6.86-1.71 2.37 1.42 3.13 4.5 1.71 6.86l-20.24 33.67c-.94 1.56-2.6 2.43-4.29 2.43zm-85.98 0c-1.7 0-3.35-.87-4.29-2.43l-20.25-33.67c-1.42-2.36-.66-5.44 1.71-6.86 2.36-1.42 5.44-.66 6.86 1.71l20.25 33.67c1.42 2.37.65 5.44-1.71 6.86-.81.49-1.7.72-2.57.72z" fill="#fefefe"/></g></g><g><g id="_445054232"><path d="m235.04 351.21c-2.77 0-5-2.24-5-5v-127.39c0-39.19 31.88-71.07 71.08-71.07 39.19 0 71.08 31.88 71.08 71.07 0 2.77-2.24 5-5 5-2.77 0-5-2.23-5-5 0-33.68-27.4-61.08-61.08-61.08s-61.09 27.4-61.09 61.08v127.39c0 2.76-2.23 5-4.99 5z" fill="#fefefe"/></g><g id="_445054952"><path d="m235.04 403.75c-17.25 0-31.28-14.03-31.28-31.27s14.03-31.27 31.28-31.27c17.24 0 31.27 14.03 31.27 31.27s-14.03 31.27-31.27 31.27zm0-52.54c-11.73 0-21.28 9.54-21.28 21.27s9.55 21.27 21.28 21.27c11.72 0 21.27-9.54 21.27-21.27s-9.55-21.27-21.27-21.27z" fill="#fefefe"/></g><g id="_445055144"><path d="m235.04 491.34c-26.91 0-48.8-21.89-48.8-48.8 0-26.9 21.89-48.79 48.8-48.79 26.9 0 48.79 21.89 48.79 48.79 0 26.91-21.89 48.8-48.79 48.8zm0-87.59c-21.4 0-38.8 17.4-38.8 38.79 0 21.4 17.41 38.8 38.8 38.8s38.79-17.4 38.79-38.8c0-21.39-17.4-38.79-38.79-38.79z" fill="#fefefe"/></g></g><g><g id="_445053968"><path d="m518.8 652.25c-1.66 0-3.21-.82-4.14-2.2l-86-127.24c-1.04-1.54-1.14-3.51-.27-5.15.87-1.63 2.56-2.65 4.41-2.65h171.99c1.85 0 3.55 1.02 4.42 2.65.86 1.64.76 3.61-.27 5.15l-86 127.25c-.93 1.37-2.48 2.19-4.14 2.19zm-76.58-127.24 76.58 113.32 76.58-113.32z" fill="#fefefe"/></g><g id="_445054856"><path d="m604.79 525.01h-171.99c-1.85 0-3.54-1.02-4.41-2.66-.87-1.63-.76-3.61.27-5.14l22.76-33.67c.93-1.38 2.48-2.2 4.14-2.2h126.48c1.66 0 3.21.82 4.14 2.2l22.76 33.67c1.03 1.53 1.14 3.51.27 5.14-.87 1.64-2.57 2.66-4.42 2.66zm-162.57-10h153.16l-16-23.67h-121.17z" fill="#fefefe"/></g><g id="_445055024"><path d="m518.8 652.25c-2.15 0-4.05-1.36-4.74-3.39l-42.99-127.25c-.52-1.53-.27-3.21.67-4.52s2.45-2.08 4.06-2.08h86c1.61 0 3.12.77 4.06 2.08s1.19 2.99.67 4.52l-42.99 127.25c-.69 2.03-2.6 3.39-4.74 3.39zm-36.03-127.24 36.03 106.63 36.03-106.63z" fill="#fefefe"/></g><g id="_445055288"><path d="m561.79 525.01h-85.99c-2.13 0-4.03-1.36-4.72-3.37-.7-2.02-.04-4.25 1.64-5.57l43-33.67c1.81-1.42 4.35-1.42 6.16 0l43 33.67c1.68 1.32 2.34 3.55 1.64 5.57-.69 2.01-2.59 3.37-4.73 3.37zm-71.49-10h57l-28.5-22.32z" fill="#fefefe"/></g><g id="_445054760"><path d="m561.79 525.01c-.88 0-1.77-.23-2.57-.72-2.37-1.42-3.13-4.49-1.71-6.86l20.24-33.67c1.42-2.37 4.5-3.13 6.86-1.71 2.37 1.42 3.13 4.5 1.71 6.86l-20.24 33.67c-.94 1.56-2.59 2.43-4.29 2.43zm-85.98 0c-1.7 0-3.36-.87-4.29-2.43l-20.25-33.67c-1.42-2.36-.66-5.44 1.71-6.86s5.44-.66 6.86 1.71l20.25 33.67c1.42 2.37.65 5.44-1.71 6.86-.81.49-1.7.72-2.57.72z" fill="#fefefe"/></g></g><g><g id="_445055192"><path d="m518.8 351.21c-2.76 0-5-2.24-5-5v-127.39c0-39.19 31.88-71.07 71.08-71.07 39.19 0 71.08 31.88 71.08 71.07 0 2.77-2.24 5-5 5s-5-2.23-5-5c0-33.68-27.4-61.08-61.08-61.08s-61.08 27.4-61.08 61.08v127.39c0 2.76-2.24 5-5 5z" fill="#fefefe"/></g><g id="_445054664"><path d="m518.8 403.75c-17.25 0-31.28-14.03-31.28-31.27s14.03-31.27 31.28-31.27c17.24 0 31.27 14.03 31.27 31.27s-14.03 31.27-31.27 31.27zm0-52.54c-11.73 0-21.28 9.54-21.28 21.27s9.55 21.27 21.28 21.27 21.27-9.54 21.27-21.27-9.54-21.27-21.27-21.27z" fill="#fefefe"/></g><g id="_445054784"><path d="m518.8 491.34c-26.91 0-48.8-21.89-48.8-48.8 0-26.9 21.89-48.79 48.8-48.79 26.9 0 48.79 21.89 48.79 48.79 0 26.91-21.89 48.8-48.79 48.8zm0-87.59c-21.4 0-38.8 17.4-38.8 38.79 0 21.4 17.4 38.8 38.8 38.8 21.39 0 38.79-17.4 38.79-38.8 0-21.39-17.4-38.79-38.79-38.79z" fill="#fefefe"/></g></g></g></g></g></svg>