<?xml version="1.0" encoding="iso-8859-1"?>
<!-- Generator: Adobe Illustrator 19.0.0, SVG Export Plug-In . SVG Version: 6.00 Build 0)  -->
<svg version="1.1" id="Layer_1" xmlns="http://www.w3.org/2000/svg" xmlns:xlink="http://www.w3.org/1999/xlink" x="0px" y="0px"
	 viewBox="0 0 512 512" style="enable-background:new 0 0 512 512;" xml:space="preserve">
<rect x="204.73" y="173.47" style="fill:#006098;" width="102.531" height="330.477"/>
<path id="SVGCleanerId_0" style="fill:#00BCB4;" d="M204.734,173.472v42.085l42.083-42.085L204.734,173.472L204.734,173.472z
	 M273.128,503.946l34.141-34.142v-60.667l-94.807,94.809H273.128z M305.081,173.472L204.735,273.818v60.667l102.533-102.534v-58.478
	h-2.187V173.472z M204.734,453.411l102.533-102.534v-60.667L204.734,392.744L204.734,453.411L204.734,453.411z"/>
<path style="fill:#FFB819;" d="M299.953,101.744c0-24.275-43.953-93.69-43.953-93.69s-43.951,69.415-43.951,93.69
	c0,24.274,19.677,43.955,43.951,43.955C280.28,145.699,299.953,126.018,299.953,101.744z"/>
<path style="fill:#FFD26C;" d="M283.268,100.884c0-15.06-27.268-58.125-27.268-58.125s-27.268,43.066-27.268,58.125
	c0,15.061,12.209,27.27,27.268,27.27C271.064,128.154,283.268,115.945,283.268,100.884z"/>
<g>
	<path id="SVGCleanerId_0_1_" style="fill:#00BCB4;" d="M204.734,173.472v42.085l42.083-42.085L204.734,173.472L204.734,173.472z
		 M273.128,503.946l34.141-34.142v-60.667l-94.807,94.809H273.128z M305.081,173.472L204.735,273.818v60.667l102.533-102.534
		v-58.478h-2.187V173.472z M204.734,453.411l102.533-102.534v-60.667L204.734,392.744L204.734,453.411L204.734,453.411z"/>
</g>
<path style="fill:#4985B1;" d="M307.269,160.968H204.735c-6.905,0-12.505,5.598-12.505,12.504c0,6.905,5.6,12.503,12.505,12.503
	h9.321c4.738,0,8.58,3.842,8.58,8.58v27.279c0,4.738,3.84,8.579,8.578,8.579c4.74,0,8.58-3.841,8.58-8.579v-27.279
	c0-4.739,3.84-8.58,8.578-8.58h15.969c5.528,0,10.01,4.482,10.01,10.009v73.662c0,5.527,4.482,10.009,10.008,10.009
	c5.528,0,10.01-4.482,10.01-10.009v-73.662c0-5.527,4.48-10.009,10.01-10.009h2.887c6.907,0,12.503-5.598,12.503-12.503
	C319.771,166.566,314.175,160.968,307.269,160.968z"/>
<path style="fill:#022A3A;" d="M307.269,152.914h-42.029c24.281-4.374,42.767-25.647,42.767-51.17
	c0-25.864-40.575-90.692-45.202-97.999C261.328,1.413,258.761,0,256.001,0c-2.76,0-5.328,1.413-6.805,3.746
	c-4.626,7.308-45.199,72.135-45.199,97.999c0,25.523,18.485,46.796,42.765,51.17h-42.027c-11.337,0-20.559,9.222-20.559,20.558
	c0,8.478,5.161,15.771,12.505,18.909v311.565c0,4.448,3.605,8.054,8.054,8.054h102.533c4.449,0,8.054-3.606,8.054-8.054V192.38
	c7.343-3.139,12.503-10.431,12.503-18.909C327.824,162.136,318.603,152.914,307.269,152.914z M220.104,101.744
	c0-13.91,19.863-51.599,35.898-78.327C272.037,50.14,291.9,87.826,291.9,101.744c0,19.795-16.103,35.901-35.899,35.901
	C236.208,137.645,220.104,121.539,220.104,101.744z M299.215,495.892h-6.644l6.644-6.643V495.892z M299.215,466.468l-29.423,29.425
	h-37.885l67.31-67.311v37.887H299.215z M299.215,405.801l-86.426,86.428v-35.481l86.426-86.427V405.801z M299.215,347.541
	l-86.426,86.427v-37.887l86.426-86.427V347.541z M299.215,286.874L212.789,373.3v-35.48l64.081-64.081
	c1.176,2.992,4.083,5.113,7.492,5.113c4.448,0,8.054-3.606,8.054-8.054v-12.605l6.8-6.8v35.48H299.215z M223.161,208.521v12.843
	c0,4.448,3.605,8.054,8.054,8.054c4.449,0,8.054-3.606,8.054-8.054v-27.336h33.866l-60.345,60.345v-35.48L223.161,208.521z
	 M212.788,196.112v-2.084h2.083L212.788,196.112z M276.308,213.634v37.887l-63.518,63.519v-37.887L276.308,213.634z
	 M299.215,228.613l-6.8,6.8v-41.385h6.8V228.613z M307.269,177.92H204.735c-2.454,0-4.451-1.995-4.451-4.449
	c0-2.454,1.996-4.45,4.451-4.45h102.533c2.453,0,4.449,1.996,4.449,4.45C311.717,175.925,309.721,177.92,307.269,177.92z"/>
<g>
</g>
<g>
</g>
<g>
</g>
<g>
</g>
<g>
</g>
<g>
</g>
<g>
</g>
<g>
</g>
<g>
</g>
<g>
</g>
<g>
</g>
<g>
</g>
<g>
</g>
<g>
</g>
<g>
</g>
</svg>
