<svg id="Layer_1" enable-background="new 0 0 512 512" viewBox="0 0 512 512" xmlns="http://www.w3.org/2000/svg" xmlns:xlink="http://www.w3.org/1999/xlink"><linearGradient id="lg1"><stop offset="0" stop-color="#a274bf"/><stop offset=".1435" stop-color="#976fbb"/><stop offset=".3928" stop-color="#7b61b3"/><stop offset=".7158" stop-color="#4d4ba4"/><stop offset="1" stop-color="#1f3596"/></linearGradient><linearGradient id="SVGID_1_" gradientUnits="userSpaceOnUse" x1="218.954" x2="439.434" xlink:href="#lg1" y1="242.79" y2="336.418"/><linearGradient id="lg2"><stop offset="0" stop-color="#1f3596" stop-opacity="0"/><stop offset=".3681" stop-color="#1f3393" stop-opacity=".368"/><stop offset=".6036" stop-color="#1e2e8b" stop-opacity=".604"/><stop offset=".8017" stop-color="#1d247c" stop-opacity=".802"/><stop offset=".9785" stop-color="#1b1667" stop-opacity=".979"/><stop offset="1" stop-color="#1b1464"/></linearGradient><linearGradient id="SVGID_00000182520101726673427200000008128529832792811138_" gradientUnits="userSpaceOnUse" x1="334.138" x2="402.094" xlink:href="#lg2" y1="141.711" y2="111.131"/><linearGradient id="lg3"><stop offset="0" stop-color="#ed74b7"/><stop offset=".1354" stop-color="#d76db3" stop-opacity=".865"/><stop offset=".4158" stop-color="#a15dab" stop-opacity=".584"/><stop offset=".8136" stop-color="#4a429d" stop-opacity=".186"/><stop offset="1" stop-color="#1f3596" stop-opacity="0"/></linearGradient><linearGradient id="SVGID_00000155857589035350244720000004436980892103757489_" gradientUnits="userSpaceOnUse" x1="337.243" x2="414.26" xlink:href="#lg3" y1="125.81" y2="111.212"/><linearGradient id="SVGID_00000065781721017469019580000016564110213919426214_" gradientUnits="userSpaceOnUse" x1="389.113" x2="373.508" xlink:href="#lg2" y1="127.441" y2="177.276"/><linearGradient id="SVGID_00000022559380009607455520000015074220766038541984_" gradientUnits="userSpaceOnUse" x1="151.747" x2="322.392" xlink:href="#lg2" y1="317.305" y2="373.18"/><linearGradient id="SVGID_00000125591649523330055810000011336682491914310314_" gradientUnits="userSpaceOnUse" x1="282.106" x2="213.67" xlink:href="#lg2" y1="326.268" y2="374.744"/><linearGradient id="SVGID_00000024692532378482950770000017394052794329772207_" gradientUnits="userSpaceOnUse" x1="240.797" x2="468.827" xlink:href="#lg3" y1="290.004" y2="405.529"/><linearGradient id="SVGID_00000088108989209976871890000014796600466659496109_" gradientUnits="userSpaceOnUse" x1="363.095" x2="440.94" xlink:href="#lg2" y1="334.796" y2="334.796"/><linearGradient id="SVGID_00000029039645268409114690000012279871318042008977_" gradientUnits="userSpaceOnUse" x1="237.276" x2="336.945" xlink:href="#lg2" y1="94.658" y2="163.746"/><linearGradient id="lg4"><stop offset="0" stop-color="#feaee1"/><stop offset=".147" stop-color="#fec6ea" stop-opacity=".853"/><stop offset=".3402" stop-color="#ffdff3" stop-opacity=".66"/><stop offset=".5419" stop-color="#fff1fa" stop-opacity=".458"/><stop offset=".7553" stop-color="#fffcfe" stop-opacity=".245"/><stop offset="1" stop-color="#fff" stop-opacity="0"/></linearGradient><linearGradient id="SVGID_00000012465332101346099910000015935268422975969715_" gradientUnits="userSpaceOnUse" x1="303.18" x2="221.633" xlink:href="#lg4" y1="162.371" y2="299.038"/><linearGradient id="SVGID_00000026138740143420108580000000145710088910652824_" gradientUnits="userSpaceOnUse" x1="316.275" x2="316.275" xlink:href="#lg2" y1="419.366" y2="502.232"/><linearGradient id="SVGID_00000104688104395037283460000007963610024669729969_" gradientUnits="userSpaceOnUse" x1="34.382" x2="250.639" xlink:href="#lg1" y1="342.751" y2="434.587"/><linearGradient id="SVGID_00000160896185456229355790000009727144059425610676_" gradientTransform="matrix(.906 -.423 .423 .906 -134.551 132.85)" gradientUnits="userSpaceOnUse" x1="134.01" x2="186.064" xlink:href="#lg2" y1="223.427" y2="200.002"/><linearGradient id="SVGID_00000093136444090757558510000013816788379320534947_" gradientTransform="matrix(.906 -.423 .423 .906 -134.551 132.85)" gradientUnits="userSpaceOnUse" x1="136.388" x2="195.383" xlink:href="#lg3" y1="211.247" y2="200.065"/><linearGradient id="SVGID_00000159440517877593818220000015995269594906875028_" gradientTransform="matrix(.906 -.423 .423 .906 -134.551 132.85)" gradientUnits="userSpaceOnUse" x1="176.121" x2="164.167" xlink:href="#lg2" y1="212.496" y2="250.669"/><linearGradient id="SVGID_00000092439625849628325300000001410081335291423658_" gradientUnits="userSpaceOnUse" x1="-9.999" x2="159.748" xlink:href="#lg2" y1="394.087" y2="449.668"/><linearGradient id="SVGID_00000061447764825380682060000002480626612804053911_" gradientUnits="userSpaceOnUse" x1="58.882" x2="294.016" xlink:href="#lg3" y1="343.219" y2="462.343"/><linearGradient id="SVGID_00000078045632876882044580000016328137785637688501_" gradientUnits="userSpaceOnUse" x1="158.906" x2="232.922" xlink:href="#lg2" y1="406.939" y2="383.015"/><linearGradient id="SVGID_00000093870928121159489050000000513049941877682071_" gradientUnits="userSpaceOnUse" x1="149.01" x2="149.01" xlink:href="#lg2" y1="450.2" y2="508.08"/><linearGradient id="SVGID_00000163046893312956894650000015837887113934286499_" gradientTransform="matrix(.906 -.423 .423 .906 -134.551 132.85)" gradientUnits="userSpaceOnUse" x1="59.814" x2="136.16" xlink:href="#lg2" y1="187.384" y2="240.306"/><linearGradient id="SVGID_00000004535532602526222740000002501556761296705157_" gradientTransform="matrix(.906 -.423 .423 .906 -134.551 132.85)" gradientUnits="userSpaceOnUse" x1="110.297" x2="47.832" xlink:href="#lg4" y1="239.252" y2="343.939"/><linearGradient id="SVGID_00000021118095349275437280000001939365666620044436_" gradientTransform="matrix(-1 0 0 1 774.707 0)" gradientUnits="userSpaceOnUse" x1="290.388" x2="464.493" xlink:href="#lg1" y1="375.741" y2="449.676"/><linearGradient id="SVGID_00000090252855493070551560000007328826634555390090_" gradientTransform="matrix(-.906 -.423 -.423 .906 909.258 132.85)" gradientUnits="userSpaceOnUse" x1="338.519" x2="380.427" xlink:href="#lg2" y1="368.964" y2="350.106"/><linearGradient id="SVGID_00000111910789354418497770000004479929120667460530_" gradientTransform="matrix(-.906 -.423 -.423 .906 909.258 132.85)" gradientUnits="userSpaceOnUse" x1="340.434" x2="387.93" xlink:href="#lg3" y1="359.158" y2="350.156"/><linearGradient id="SVGID_00000098933680851263967790000017348661956221249203_" gradientTransform="matrix(-.906 -.423 -.423 .906 909.258 132.85)" gradientUnits="userSpaceOnUse" x1="372.422" x2="362.799" xlink:href="#lg2" y1="360.164" y2="390.897"/><linearGradient id="SVGID_00000155836002458022019390000003656911718260599444_" gradientTransform="matrix(-1 0 0 1 774.707 0)" gradientUnits="userSpaceOnUse" x1="254.657" x2="391.318" xlink:href="#lg2" y1="417.07" y2="461.818"/><linearGradient id="SVGID_00000028323331917202310000000002309902732992426910_" gradientTransform="matrix(-1 0 0 1 774.707 0)" gradientUnits="userSpaceOnUse" x1="310.112" x2="499.415" xlink:href="#lg3" y1="376.117" y2="472.022"/><linearGradient id="SVGID_00000120548296707584954460000004982676150176427455_" gradientTransform="matrix(-1 0 0 1 774.707 0)" gradientUnits="userSpaceOnUse" x1="390.64" x2="450.23" xlink:href="#lg2" y1="427.417" y2="408.156"/><linearGradient id="SVGID_00000104701798812027733210000008347810283037422012_" gradientTransform="matrix(-1 0 0 1 774.707 0)" gradientUnits="userSpaceOnUse" x1="382.673" x2="382.673" xlink:href="#lg2" y1="462.246" y2="508.844"/><linearGradient id="SVGID_00000104676098421956118360000001761544416999677841_" gradientTransform="matrix(-.906 -.423 -.423 .906 909.258 132.85)" gradientUnits="userSpaceOnUse" x1="278.785" x2="340.251" xlink:href="#lg2" y1="339.947" y2="382.553"/><linearGradient id="SVGID_00000029748550334248827420000009323185420625439653_" gradientTransform="matrix(-.906 -.423 -.423 .906 909.258 132.85)" gradientUnits="userSpaceOnUse" x1="319.428" x2="269.139" xlink:href="#lg4" y1="381.705" y2="465.987"/><linearGradient id="lg5"><stop offset="0" stop-color="#eaf9fa"/><stop offset="1" stop-color="#b3dafe"/></linearGradient><linearGradient id="SVGID_00000037657472799620338970000005991730673687691416_" gradientUnits="userSpaceOnUse" x1="39.142" x2="69.87" xlink:href="#lg5" y1="72.877" y2="103.605"/><linearGradient id="lg6"><stop offset="0" stop-color="#b3dafe" stop-opacity="0"/><stop offset="1" stop-color="#7bacdf"/></linearGradient><linearGradient id="SVGID_00000048503501283988611340000013478117481918429871_" gradientUnits="userSpaceOnUse" x1="65.537" x2="21.814" xlink:href="#lg6" y1="77.899" y2="100.711"/><linearGradient id="SVGID_00000051359960162677911640000009133411981035512716_" gradientUnits="userSpaceOnUse" x1="48.587" x2="55.241" xlink:href="#lg6" y1="72.324" y2="102.265"/><linearGradient id="SVGID_00000149348066134707334150000001486012813801141906_" gradientUnits="userSpaceOnUse" x1="116.743" x2="147.471" xlink:href="#lg5" y1="316.374" y2="347.102"/><linearGradient id="SVGID_00000003827691834273448930000009995094236846728616_" gradientUnits="userSpaceOnUse" x1="143.139" x2="99.416" xlink:href="#lg6" y1="321.395" y2="344.207"/><linearGradient id="SVGID_00000103262917978604015750000016833873154258590389_" gradientUnits="userSpaceOnUse" x1="126.189" x2="132.842" xlink:href="#lg6" y1="315.821" y2="345.761"/><linearGradient id="SVGID_00000018196123180765067140000004154460871975340725_" gradientUnits="userSpaceOnUse" x1="421.975" x2="471.156" xlink:href="#lg5" y1="28.795" y2="77.976"/><linearGradient id="SVGID_00000139282071179686337070000001471685912532371854_" gradientUnits="userSpaceOnUse" x1="464.222" x2="394.242" xlink:href="#lg6" y1="36.832" y2="73.343"/><linearGradient id="SVGID_00000096039648097613518080000010690924619767187852_" gradientUnits="userSpaceOnUse" x1="437.093" x2="447.742" xlink:href="#lg6" y1="27.909" y2="75.83"/><g><g><g><path d="m330.53 38.342-134.076 150.361c-4.841 5.429-7.516 12.448-7.516 19.722v245.187c0 32.247 26.141 58.388 58.387 58.388h45.803 92.094c32.246 0 58.387-26.141 58.387-58.387v-248.537c0-5.204-1.37-10.316-3.974-14.823l-86.407-149.584c-4.798-8.305-16.315-9.486-22.698-2.327z" fill="url(#SVGID_1_)"/><path d="m439.637 190.253-86.409-149.584c-2.208-3.822-5.841-6.114-9.739-6.8v123.723l98.88 39.05c-.659-2.22-1.564-4.367-2.732-6.389z" fill="url(#SVGID_00000182520101726673427200000008128529832792811138_)"/><path d="m439.637 190.253-86.409-149.584c-2.208-3.822-5.841-6.114-9.739-6.8v123.723l98.88 39.05c-.659-2.22-1.564-4.367-2.732-6.389z" fill="url(#SVGID_00000155857589035350244720000004436980892103757489_)"/><path d="m439.637 190.253-86.409-149.584c-2.208-3.822-5.841-6.114-9.739-6.8v123.723l98.88 39.05c-.659-2.22-1.564-4.367-2.732-6.389z" fill="url(#SVGID_00000065781721017469019580000016564110213919426214_)"/><path d="m191.183 197.132c-1.465 3.553-2.244 7.384-2.244 11.29v245.193c.001 32.245 26.141 58.385 58.387 58.385h45.803v-314.868z" fill="url(#SVGID_00000022559380009607455520000015074220766038541984_)"/><path d="m191.183 197.132c-1.465 3.553-2.244 7.384-2.244 11.29v245.193c.001 32.245 26.141 58.385 58.387 58.385h45.803v-314.868z" fill="url(#SVGID_00000125591649523330055810000011336682491914310314_)"/><path d="m343.489 157.592-50.36 39.54v314.868h92.094c32.246 0 58.387-26.141 58.387-58.387v-248.537c0-2.87-.431-5.707-1.242-8.434z" fill="url(#SVGID_00000024692532378482950770000017394052794329772207_)"/><path d="m343.489 157.592-50.36 39.54v314.868h92.094c32.246 0 58.387-26.141 58.387-58.387v-248.537c0-2.87-.431-5.707-1.242-8.434z" fill="url(#SVGID_00000088108989209976871890000014796600466659496109_)"/><g><path d="m293.129 197.132 50.359-39.54v-123.723c-4.573-.805-9.512.608-12.958 4.472l-134.077 150.364c-2.238 2.51-3.992 5.369-5.253 8.427z" fill="url(#SVGID_00000029039645268409114690000012279871318042008977_)"/></g><path d="m188.939 208.422v123.733h104.191v-135.023h-101.947c-1.465 3.553-2.244 7.383-2.244 11.29z" fill="url(#SVGID_00000012465332101346099910000015935268422975969715_)"/><path d="m188.939 361.604v92.009c0 32.247 26.141 58.388 58.387 58.388h45.803 92.094c32.246 0 58.387-26.141 58.387-58.387v-92.009h-254.671z" fill="url(#SVGID_00000026138740143420108580000000145710088910652824_)"/></g><g><path d="m270.535 512h-193.018c-6.175 0-11.791-3.578-14.4-9.174l-60.99-130.798c-1.017-2.171-1.674-4.48-1.949-6.832-.392-3.093-.138-6.26.773-9.289l44.412-147.789c2.108-7.044 10.486-9.946 16.502-5.741l108.419 75.881c1.462 1.027 2.796 2.214 3.961 3.548.032.032.063.074.085.106.339.371.657.752.943 1.133 1.006 1.303 1.864 2.712 2.563 4.216l36.341 77.935 63.348 135.83c2.386 5.114-1.347 10.974-6.99 10.974z" fill="url(#SVGID_00000104688104395037283460000007963610024669729969_)"/><path d="m170.282 278.255-108.411-75.873c-2.77-1.938-6.034-2.354-8.963-1.568l40.052 85.892 81.287-4.9c-1.176-1.328-2.5-2.526-3.965-3.551z" fill="url(#SVGID_00000160896185456229355790000009727144059425610676_)"/><path d="m170.282 278.255-108.411-75.873c-2.77-1.938-6.034-2.354-8.963-1.568l40.052 85.892 81.287-4.9c-1.176-1.328-2.5-2.526-3.965-3.551z" fill="url(#SVGID_00000093136444090757558510000013816788379320534947_)"/><path d="m170.282 278.255-108.411-75.873c-2.77-1.938-6.034-2.354-8.963-1.568l40.052 85.892 81.287-4.9c-1.176-1.328-2.5-2.526-3.965-3.551z" fill="url(#SVGID_00000159440517877593818220000015995269594906875028_)"/><path d="m155.445 512h-77.928c-6.175 0-11.791-3.578-14.4-9.174l-60.99-130.798c-1.017-2.182-1.674-4.48-1.949-6.832-.074-.583-.127-1.155-.148-1.737l70.765-33.004 16.195 34.742z" fill="url(#SVGID_00000092439625849628325300000001410081335291423658_)"/><path d="m270.535 512h-115.09l-68.456-146.804-16.195-34.742 22.169-43.745 81.282-4.904c.032.032.063.074.085.106.328.371.646.741.943 1.133 1.006 1.303 1.864 2.712 2.563 4.216l36.341 77.935 63.348 135.83c2.386 5.115-1.347 10.975-6.99 10.975z" fill="url(#SVGID_00000061447764825380682060000002480626612804053911_)"/><path d="m270.535 512h-115.09l-68.456-146.804-16.195-34.742 22.169-43.745 81.282-4.904c1.451 1.631 2.669 3.464 3.591 5.455l36.341 77.935 63.348 135.83c2.386 5.115-1.347 10.975-6.99 10.975z" fill="url(#SVGID_00000078045632876882044580000016328137785637688501_)"/><path d="m63.117 502.826c2.609 5.596 8.225 9.174 14.4 9.174h77.928 115.09c5.642 0 9.376-5.86 6.991-10.974l-42.523-91.176h-215.24z" fill="url(#SVGID_00000093870928121159489050000000513049941877682071_)"/><g><path d="m70.799 330.458 22.161-43.752-40.052-85.892c-3.436.922-6.407 3.501-7.548 7.3l-44.404 147.79c-.741 2.467-1.033 5.019-.919 7.551z" fill="url(#SVGID_00000163046893312956894650000015837887113934286499_)"/></g><path d="m2.122 372.025 40.055 85.899 72.332-33.729-43.71-93.737-70.774 33.003c.133 2.941.832 5.852 2.097 8.564z" fill="url(#SVGID_00000004535532602526222740000002501556761296705157_)"/></g><g><path d="m294.196 512h155.396c4.971 0 9.492-2.88 11.593-7.386l49.102-105.304c.819-1.748 1.347-3.607 1.569-5.5.316-2.49.111-5.04-.622-7.479l-35.755-118.983c-1.697-5.671-8.442-8.007-13.286-4.622l-87.286 61.09c-1.177.827-2.251 1.782-3.189 2.857-.026.026-.051.06-.068.085-.273.298-.529.605-.759.912-.81 1.049-1.501 2.183-2.064 3.394l-29.258 62.745-51.001 109.355c-1.92 4.118 1.086 8.836 5.628 8.836z" fill="url(#SVGID_00000021118095349275437280000001939365666620044436_)"/><path d="m374.909 323.815 87.28-61.084c2.23-1.561 4.858-1.895 7.216-1.262l-32.245 69.15-65.443-3.945c.946-1.069 2.012-2.033 3.192-2.859z" fill="url(#SVGID_00000090252855493070551560000007328826634555390090_)"/><path d="m374.909 323.815 87.28-61.084c2.23-1.561 4.858-1.895 7.216-1.262l-32.245 69.15-65.443-3.945c.946-1.069 2.012-2.033 3.192-2.859z" fill="url(#SVGID_00000111910789354418497770000004479929120667460530_)"/><path d="m374.909 323.815 87.28-61.084c2.23-1.561 4.858-1.895 7.216-1.262l-32.245 69.15-65.443-3.945c.946-1.069 2.012-2.033 3.192-2.859z" fill="url(#SVGID_00000098933680851263967790000017348661956221249203_)"/><path d="m386.854 512h62.739c4.971 0 9.492-2.88 11.593-7.386l49.102-105.304c.819-1.757 1.347-3.607 1.569-5.5.06-.469.102-.93.119-1.399l-56.971-26.571-13.038 27.97z" fill="url(#SVGID_00000155836002458022019390000003656911718260599444_)"/><path d="m294.196 512h92.657l55.113-118.19 13.038-27.97-17.848-35.218-65.439-3.948c-.026.026-.051.06-.068.085-.264.298-.52.597-.759.912-.81 1.049-1.501 2.183-2.064 3.394l-29.258 62.745-51.001 109.355c-1.919 4.117 1.087 8.835 5.629 8.835z" fill="url(#SVGID_00000028323331917202310000000002309902732992426910_)"/><path d="m294.196 512h92.657l55.113-118.19 13.038-27.97-17.848-35.218-65.439-3.948c-1.168 1.313-2.149 2.788-2.891 4.392l-29.258 62.745-51.001 109.355c-1.919 4.116 1.087 8.834 5.629 8.834z" fill="url(#SVGID_00000120548296707584954460000004982676150176427455_)"/><path d="m461.186 504.614c-2.101 4.506-6.622 7.386-11.593 7.386h-62.739-92.657c-4.543 0-7.548-4.718-5.628-8.835l34.234-73.405h173.286z" fill="url(#SVGID_00000104701798812027733210000008347810283037422012_)"/><g><path d="m455.001 365.844-17.841-35.224 32.245-69.15c2.766.742 5.158 2.819 6.077 5.877l35.749 118.984c.597 1.986.832 4.041.74 6.079z" fill="url(#SVGID_00000104676098421956118360000001761544416999677841_)"/></g><path d="m510.292 399.309-32.248 69.156-58.234-27.155 35.19-75.466 56.979 26.57c-.106 2.367-.669 4.711-1.687 6.895z" fill="url(#SVGID_00000029748550334248827420000009323185420625439653_)"/></g></g><g><g><path d="m49.83 114.441c-6.199-12.208-16.434-22.019-28.954-27.671-1.387-.626-1.387-2.611 0-3.237 12.519-5.652 22.755-15.463 28.954-27.671.66-1.3 2.511-1.3 3.171 0 6.199 12.207 16.434 22.019 28.954 27.671 1.387.626 1.387 2.611 0 3.237-12.519 5.652-22.755 15.463-28.954 27.671-.66 1.299-2.511 1.299-3.171 0z" fill="url(#SVGID_00000037657472799620338970000005991730673687691416_)"/><path d="m53.001 114.441c6.199-12.208 16.434-22.019 28.954-27.671 1.387-.626 1.387-2.611 0-3.237-12.52-5.652-22.755-15.464-28.954-27.671-.33-.65-.958-.975-1.586-.975v60.529c.628 0 1.256-.325 1.586-.975z" fill="url(#SVGID_00000048503501283988611340000013478117481918429871_)"/><path d="m81.955 83.533c-12.52-5.652-22.755-15.464-28.954-27.671-.66-1.3-2.511-1.3-3.171 0-6.199 12.208-16.434 22.019-28.954 27.671-.693.313-1.04.966-1.04 1.619h63.159c0-.653-.347-1.306-1.04-1.619z" fill="url(#SVGID_00000051359960162677911640000009133411981035512716_)"/></g><g><path d="m127.431 357.938c-6.199-12.208-16.434-22.019-28.954-27.671-1.387-.626-1.387-2.611 0-3.237 12.519-5.652 22.755-15.463 28.954-27.671.66-1.299 2.511-1.299 3.171 0 6.199 12.208 16.434 22.019 28.954 27.671 1.387.626 1.387 2.611 0 3.237-12.519 5.652-22.755 15.463-28.954 27.671-.659 1.299-2.511 1.299-3.171 0z" fill="url(#SVGID_00000149348066134707334150000001486012813801141906_)"/><path d="m130.603 357.938c6.199-12.208 16.434-22.019 28.954-27.671 1.387-.626 1.387-2.611 0-3.237-12.519-5.652-22.755-15.463-28.954-27.671-.33-.65-.958-.975-1.586-.975v60.529c.628-.001 1.256-.326 1.586-.975z" fill="url(#SVGID_00000003827691834273448930000009995094236846728616_)"/><path d="m159.556 327.029c-12.519-5.652-22.755-15.463-28.954-27.671-.66-1.3-2.511-1.3-3.171 0-6.199 12.208-16.434 22.019-28.954 27.671-.693.313-1.04.966-1.04 1.619h63.159c.001-.653-.346-1.306-1.04-1.619z" fill="url(#SVGID_00000103262917978604015750000016833873154258590389_)"/></g><g><path d="m439.082 95.319c-9.922-19.539-26.304-35.243-46.342-44.289-2.22-1.002-2.22-4.179 0-5.181 20.038-9.046 36.42-24.75 46.342-44.289 1.056-2.08 4.019-2.08 5.076 0 9.922 19.539 26.304 35.243 46.342 44.289 2.22 1.002 2.22 4.179 0 5.181-20.038 9.046-36.42 24.75-46.342 44.289-1.057 2.08-4.02 2.08-5.076 0z" fill="url(#SVGID_00000018196123180765067140000004154460871975340725_)"/><path d="m444.157 95.319c9.922-19.539 26.304-35.243 46.342-44.289 2.22-1.002 2.22-4.179 0-5.181-20.038-9.046-36.42-24.75-46.342-44.289-.528-1.04-1.533-1.56-2.537-1.56v96.879c1.004 0 2.009-.52 2.537-1.56z" fill="url(#SVGID_00000139282071179686337070000001471685912532371854_)"/><path d="m490.499 45.849c-20.038-9.046-36.42-24.75-46.342-44.289-1.056-2.08-4.019-2.08-5.076 0-9.922 19.539-26.304 35.243-46.342 44.289-1.11.501-1.665 1.546-1.665 2.591h101.089c.001-1.045-.554-2.09-1.664-2.591z" fill="url(#SVGID_00000096039648097613518080000010690924619767187852_)"/></g></g></g><g/><g/><g/><g/><g/><g/><g/><g/><g/><g/><g/><g/><g/><g/><g/></svg>