<svg height="512pt" viewBox="0 0 512.00001 512" width="512pt" xmlns="http://www.w3.org/2000/svg"><path d="m397.523438 354.558594-13.6875 27.761718-38.089844 77.253907c-2.597656 5.277343-7.976563 8.621093-13.859375 8.621093h-150.703125c-5.839844 0-11.175782-3.292968-13.796875-8.511718l-52.910157-105.125zm0 0" fill="#ae583e"/><path d="m383.835938 382.320312-38.089844 77.253907c-2.597656 5.277343-7.976563 8.621093-13.859375 8.621093h-117.359375l-39.355469-78.199218c-1.769531-3.523438.789063-7.675782 4.730469-7.675782zm0 0" fill="#c0694e"/><path d="m449.128906 341.300781c0 6.945313-2.8125 13.226563-7.355468 17.769531-4.554688 4.546876-10.835938 7.355469-17.769532 7.355469h-336.007812c-13.875 0-25.125-11.246093-25.125-25.125 0-6.933593 2.808594-13.214843 7.355468-17.757812 4.554688-4.546875 10.835938-7.355469 17.769532-7.355469h336.007812c13.875 0 25.125 11.246094 25.125 25.113281zm0 0" fill="#c97e67"/><path d="m449.128906 341.300781h-323.003906c-13.875 0-25.125-11.246093-25.125-25.113281h323.003906c13.875 0 25.125 11.246094 25.125 25.113281zm0 0" fill="#d29380"/><path d="m504.476562 485.875c0 9.773438-7.917968 17.691406-17.691406 17.691406h-461.570312c-9.773438 0-17.691406-7.917968-17.691406-17.691406 0-9.765625 7.917968-17.679688 17.691406-17.679688h461.570312c9.773438 0 17.691406 7.914063 17.691406 17.679688zm0 0" fill="#7c3f2c"/><path d="m504.476562 485.875c0 9.773438-7.917968 17.691406-17.691406 17.691406h-456.042968c0-9.773437 7.917968-17.691406 17.691406-17.691406zm0 0" fill="#954c35"/><path d="m486.789062 460.667969h-133.1875l9.222657-18.703125c1.835937-3.722656.300781-8.238282-3.421875-10.074219-3.734375-1.835937-8.25-.300781-10.085938 3.421875l-10.324218 20.929688c-1.339844 2.722656-4.046876 4.414062-7.074219 4.425781h-150.761719c-3-.011719-5.695312-1.683594-7.046875-4.363281l-41.449219-82.351563h246.910156l-16.9375 34.355469c-1.835937 3.734375-.3125 8.238281 3.421876 10.085937 1.074218.523438 2.207031.773438 3.320312.773438 2.78125 0 5.449219-1.546875 6.753906-4.195313l20.230469-41.019531h27.644531c18 0 32.648438-14.648437 32.648438-32.652344 0-18-14.648438-32.640625-32.648438-32.640625h-94.960937l52.519531-168.949218c1.234375-3.96875-.980469-8.183594-4.949219-9.417969-3.972656-1.234375-8.1875.980469-9.421875 4.953125l-53.914062 173.414062h-49.753906v-271.472656c0-4.15625-3.367188-7.527344-7.523438-7.527344s-7.527344 3.371094-7.527344 7.527344v271.472656h-49.753906l-53.914062-173.414062c-1.230469-3.96875-5.449219-6.1875-9.417969-4.953125-3.972657 1.230469-6.1875 5.449219-4.953125 9.417969l52.519531 168.949218h-58.394531c-4.152344 0-7.523438 3.363282-7.523438 7.527344 0 4.152344 3.371094 7.523438 7.523438 7.523438h299.441406c9.703125 0 17.601562 7.886718 17.601562 17.589843s-7.898437 17.601563-17.601562 17.601563c-40.59375 0-300.980469 0-336.003906 0-9.703125 0-17.601563-7.898438-17.601563-17.601563s7.898438-17.589843 17.601563-17.589843h6.460937c4.152344 0 7.527344-3.371094 7.527344-7.523438 0-4.164062-3.375-7.527344-7.527344-7.527344h-6.460937c-18.003906 0-32.652344 14.640625-32.652344 32.640625 0 18.003907 14.648438 32.652344 32.652344 32.652344h27.8125l43.640625 86.714844h-134.238281c-13.902344 0-25.210938 11.308593-25.210938 25.210937 0 13.898438 11.308594 25.207032 25.210938 25.207032h416.824218c4.15625 0 7.523438-3.367188 7.523438-7.523438s-3.367188-7.527344-7.523438-7.527344h-416.824218c-5.601563 0-10.160157-4.558594-10.160157-10.15625 0-5.605468 4.558594-10.160156 10.160157-10.160156h461.578124c5.601563 0 10.160157 4.554688 10.160157 10.160156 0 5.597656-4.558594 10.15625-10.160157 10.15625h-14.652343c-4.15625 0-7.523438 3.371094-7.523438 7.527344s3.367188 7.523438 7.523438 7.523438h14.652343c13.902344 0 25.210938-11.308594 25.210938-25.207032 0-13.902344-11.308594-25.210937-25.210938-25.210937zm0 0"/><path d="m55.339844 83.234375c4.558594 7.492187 12.839844 12.148437 21.609375 12.148437h24.640625c2.859375 0 5.609375 1.207032 7.542968 3.3125 9.53125 9.460938 10.914063 14.246094 16.386719 14.246094 6.503907 0 9.96875-7.792968 5.542969-12.617187l-10.84375-11.808594c-4.777344-5.203125-11.566406-8.183594-18.628906-8.183594h-24.640625c-3.550781 0-6.902344-1.882812-8.746094-4.917969l-5.488281-9.023437c-2.160156-3.550781-6.789063-4.679687-10.339844-2.519531s-4.679688 6.789062-2.519531 10.339844zm0 0"/><path d="m388.84375 110.503906c9.246094-9.003906 11.222656-15.121094 18.382812-15.121094h24.640626c8.773437 0 17.054687-4.65625 21.609374-12.148437l5.488282-9.023437c2.15625-3.550782 1.03125-8.179688-2.519532-10.339844-3.554687-2.160156-8.183593-1.03125-10.34375 2.519531l-5.484374 9.023437c-1.847657 3.035157-5.195313 4.917969-8.75 4.917969h-24.640626c-7.0625 0-13.851562 2.984375-18.625 8.183594l-10.84375 11.8125c-2.8125 3.058594-2.609374 7.820313.453126 10.632813 3.054687 2.800781 7.816406 2.613281 10.632812-.457032zm0 0"/><path d="m280.519531 16.285156 15.988281-1.257812c2.871094-.238282 5.675782.761718 7.773438 2.710937l18.039062 16.785157c13.753907 12.792968 29.34375 3.503906 34.257813 2.953124 4-1.128906 6.328125-5.285156 5.199219-9.285156s-5.285156-6.332031-9.285156-5.199218l-10.164063 2.867187c-3.40625.960937-7.105469.109375-9.753906-2.359375l-18.042969-16.78125c-11.640625-10.832031-24.40625-5.273438-35.195312-5.4375-4.144532.328125-7.238282 3.953125-6.910157 8.09375.324219 4.144531 3.953125 7.238281 8.09375 6.910156zm0 0"/></svg>