<svg height="512" viewBox="0 0 32 32" width="512" xmlns="http://www.w3.org/2000/svg"><g id="Color"><path d="m16 7c-7.73 0-14 9-14 9s6.27 9 14 9 14-9 14-9-6.27-9-14-9zm0 16a7 7 0 1 1 7-7 7.0077 7.0077 0 0 1 -7 7z" fill="#f2f2f2"/><circle cx="16" cy="16" fill="#43b3ff" r="7"/><circle cx="16" cy="16" fill="#ffc943" r="4"/></g><g id="Outline"><path d="m30.41016 15.71436c-.26172-.37647-6.50977-9.21436-14.41016-9.21436s-14.14795 8.83789-14.41016 9.21436a.49954.49954 0 0 0 0 .57128c.21778.313 5.41553 7.67237 12.31543 9.00538a.52745.52745 0 0 0 .09522.00878.50017.50017 0 0 0 .09424-.99121c-5.75635-1.11132-10.44434-6.94238-11.47412-8.30859 1.14013-1.5127 6.76904-8.5 13.37939-8.5 6.61133 0 12.23926 6.98779 13.37988 8.5-1.03027 1.36621-5.71777 7.19727-11.47461 8.30859a.50027.50027 0 0 0 .18946.98243c6.90039-1.333 12.09765-8.69239 12.31543-9.00538a.49791.49791 0 0 0 0-.57128z"/><path d="m23.5 16a7.5 7.5 0 1 0 -7.5 7.5 7.5082 7.5082 0 0 0 7.5-7.5zm-14 0a6.5 6.5 0 1 1 6.5 6.5 6.50753 6.50753 0 0 1 -6.5-6.5z"/><path d="m16 4.5a.49971.49971 0 0 0 .5-.5v-2a.5.5 0 0 0 -1 0v2a.49971.49971 0 0 0 .5.5z"/><path d="m16 27.5a.49971.49971 0 0 0 -.5.5v2a.5.5 0 0 0 1 0v-2a.49971.49971 0 0 0 -.5-.5z"/><path d="m21.75 6.041a.49973.49973 0 0 0 .68262-.18311l1-1.73242a.49966.49966 0 1 0 -.86524-.5l-1 1.73242a.49937.49937 0 0 0 .18262.68311z"/><path d="m10.25 25.96a.49746.49746 0 0 0 -.68311.18262l-1 1.73144a.49926.49926 0 0 0 .18311.68262.49284.49284 0 0 0 .24951.06738.50058.50058 0 0 0 .4336-.25l1-1.73144a.49927.49927 0 0 0 -.18311-.68262z"/><path d="m9.56689 5.85791a.50008.50008 0 0 0 .86622-.5l-1-1.73242a.50008.50008 0 0 0 -.86622.5z"/><path d="m22.43262 26.14258a.49966.49966 0 0 0 -.86524.5l1 1.73144a.49966.49966 0 1 0 .86524-.5z"/><circle cx="16" cy="25" r=".5"/><path d="m16 11.5a4.5 4.5 0 1 0 4.5 4.5 4.50491 4.50491 0 0 0 -4.5-4.5zm-3.5 4.5a3.495 3.495 0 0 1 3-3.44946v3.24246l-2.29315 2.29358a3.4665 3.4665 0 0 1 -.70685-2.08658zm3 1.20721v2.25031a3.504 3.504 0 0 1 -1.58606-.664zm1 2.25025v-2.25046l1.5863 1.5863a3.50386 3.50386 0 0 1 -1.5863.66416zm2.29333-1.37116-2.29333-2.2933v-3.24246a3.46911 3.46911 0 0 1 2.29333 5.53576z"/></g></svg>